<svg width="240" height="16" viewBox="0 0 240 16" fill="none" xmlns="http://www.w3.org/2000/svg">
<g clip-path="url(#clip0_11903_91408)">
<path d="M26.7733 11.7867C29.3387 11.7867 30.72 10.4053 30.72 7.84V3.94667C30.72 1.38133 29.3387 0 26.7733 0H0V16H3.62667V11.7867H26.7733ZM27.0933 4.16V7.62667C27.0933 8.04267 26.8693 8.26667 26.4533 8.26667H3.62667V3.52H26.4533C26.8693 3.52 27.0933 3.744 27.0933 4.16ZM39.2533 16C36.688 16 35.3067 14.6187 35.3067 12.0533V3.94667C35.3067 1.38133 36.688 0 39.2533 0H61.4933C64.0587 0 65.44 1.38133 65.44 3.94667V12.0533C65.44 14.6187 64.0587 16 61.4933 16H39.2533ZM61.1733 12.48C61.5893 12.48 61.8133 12.256 61.8133 11.84V4.16C61.8133 3.744 61.5893 3.52 61.1733 3.52H39.5733C39.1573 3.52 38.9333 3.744 38.9333 4.16V11.84C38.9333 12.256 39.1573 12.48 39.5733 12.48H61.1733ZM97.1733 10.56C99.2984 11.4537 100.792 13.552 100.8 16H97.1733C97.1733 13.12 95.84 11.7867 92.96 11.7867H73.7067V16H70.08V0H96.8533C99.4187 0 100.8 1.38133 100.8 3.94667V6.6208C100.8 9.07733 99.5333 10.448 97.1733 10.56ZM96.5333 8.26667C96.9493 8.26667 97.1733 8.04267 97.1733 7.62667V4.16C97.1733 3.744 96.9493 3.52 96.5333 3.52H73.7067V8.26667H96.5333ZM105.173 3.94667C105.173 1.38133 106.555 0 109.12 0H135.36V2.98667H109.44C109.024 2.98667 108.8 3.21067 108.8 3.62667V5.86667C108.8 6.28267 109.024 6.50667 109.44 6.50667H131.947C134.512 6.50667 135.893 7.888 135.893 10.4533V12.0533C135.893 14.6187 134.512 16 131.947 16H105.707V13.0133H131.627C132.043 13.0133 132.267 12.7893 132.267 12.3733V10.1333C132.267 9.71733 132.043 9.49333 131.627 9.49333H109.12C106.555 9.49333 105.173 8.112 105.173 5.54667V3.94667ZM140.427 3.94667C140.427 1.38133 141.808 0 144.373 0H169.973V3.52H144.693C144.277 3.52 144.053 3.744 144.053 4.16V11.84C144.053 12.256 144.277 12.48 144.693 12.48H169.973V16H144.373C141.808 16 140.427 14.6187 140.427 12.0533V3.94667ZM203.573 0V16H199.947V9.76H178.24V16H174.613V0H178.24V6.24H199.947V0H203.573ZM211.893 2.98667V6.50667H240V9.49333H211.893V13.0133H240V16H208.267V0H240V2.98667H211.893Z" fill="black"/>
</g>
<defs>
<clipPath id="clip0_11903_91408">
<rect width="240" height="16" fill="white"/>
</clipPath>
</defs>
</svg>
